<?xml version="1.0" encoding="UTF-8" standalone="no"?>
<svg
   xmlns:dc="http://purl.org/dc/elements/1.1/"
   xmlns:cc="http://creativecommons.org/ns#"
   xmlns:rdf="http://www.w3.org/1999/02/22-rdf-syntax-ns#"
   xmlns:svg="http://www.w3.org/2000/svg"
   xmlns="http://www.w3.org/2000/svg"
   version="1.1"
   id="svg2"
   viewBox="0 0 512.00001 512.00001"
   height="512"
   width="512">
  <defs
     id="defs4" />
  <metadata
     id="metadata7">
    <rdf:RDF>
      <cc:Work
         rdf:about="">
        <dc:format>image/svg+xml</dc:format>
        <dc:type
           rdf:resource="http://purl.org/dc/dcmitype/StillImage" />
        <dc:title></dc:title>
      </cc:Work>
    </rdf:RDF>
  </metadata>
  <g
     transform="translate(0,-540.36216)"
     id="layer1">
    <rect
       ry="50"
       rx="50"
       y="540.36218"
       x="0"
       height="512"
       width="512"
       id="rect4726"
       style="opacity:1;fill:#ffffff;fill-opacity:1;stroke:none;stroke-width:20;stroke-miterlimit:4;stroke-dasharray:none;stroke-opacity:0.74509804" />
    <rect
       ry="27.309708"
       rx="23.590431"
       y="603.88721"
       x="99.913925"
       height="53.145493"
       width="312.17215"
       id="rect4265"
       style="opacity:1;fill:#607d8b;fill-opacity:1;stroke:none;stroke-width:50;stroke-miterlimit:4;stroke-dasharray:none;stroke-opacity:0.74509804" />
    <rect
       ry="27.309708"
       rx="23.590431"
       y="825.09015"
       x="99.913925"
       height="53.145493"
       width="312.17215"
       id="rect4265-2"
       style="opacity:1;fill:#607d8b;fill-opacity:1;stroke:none;stroke-width:50;stroke-miterlimit:4;stroke-dasharray:none;stroke-opacity:0.74509804" />
    <rect
       ry="27.309708"
       rx="23.590431"
       y="935.69159"
       x="99.913925"
       height="53.145493"
       width="312.17215"
       id="rect4265-9"
       style="opacity:1;fill:#607d8b;fill-opacity:1;stroke:none;stroke-width:50;stroke-miterlimit:4;stroke-dasharray:none;stroke-opacity:0.74509804" />
    <rect
       ry="27.309708"
       rx="23.590431"
       y="714.48865"
       x="99.913925"
       height="53.145493"
       width="312.17215"
       id="rect4265-27"
       style="opacity:1;fill:#607d8b;fill-opacity:1;stroke:none;stroke-width:50;stroke-miterlimit:4;stroke-dasharray:none;stroke-opacity:0.74509804" />
    <g
       style="stroke:#ffffff;stroke-opacity:1;stroke-width:4.8;stroke-miterlimit:4;stroke-dasharray:none"
       transform="translate(668.10971,-3.6120855e-7)"
       id="g5492">
      <path
         id="rect4265-9-0"
         transform="translate(-668.10971,540.36216)"
         d="M 447.19531 158.39844 C 441.20729 158.32927 435.42949 160.42403 431.09766 164.75586 L 202.78516 393.06836 L 80.902344 271.18555 C 71.661102 261.9443 55.841172 262.88539 45.431641 273.29492 C 35.02211 283.70445 34.081023 299.52438 43.322266 308.76562 L 186.41406 451.85547 C 195.6553 461.09671 211.47523 460.15758 221.88477 449.74805 C 223.12151 448.5113 224.21927 447.19555 225.1875 445.82617 L 468.67773 202.33594 C 477.91898 193.0947 476.97789 177.27477 466.56836 166.86523 C 461.0383 161.33517 453.98174 158.47683 447.19531 158.39844 z "
         style="opacity:1;fill:#76ff03;fill-opacity:1;stroke:#ffffff;stroke-width:4.80000019;stroke-miterlimit:4;stroke-dasharray:none;stroke-opacity:1" />
    </g>
  </g>
</svg>
